<?xml version="1.0" encoding="utf-8"?>
<!-- Generator: Adobe Illustrator 18.0.0, SVG Export Plug-In . SVG Version: 6.00 Build 0)  -->
<!DOCTYPE svg PUBLIC "-//W3C//DTD SVG 1.1//EN" "http://www.w3.org/Graphics/SVG/1.1/DTD/svg11.dtd">
<svg version="1.1" id="Layer_1" xmlns="http://www.w3.org/2000/svg" xmlns:xlink="http://www.w3.org/1999/xlink" x="0px" y="0px"
	 viewBox="0 0 595.3 841.9" enable-background="new 0 0 595.3 841.9" xml:space="preserve">
<g>
	<path fill="none" stroke="#000000" stroke-width="3" stroke-miterlimit="10" d="M248,394.2h101.8v27.4H314v111h-30.1v-111H248
		V394.2L248,394.2z"/>
</g>
<g>
	<path fill="none" stroke="#000000" stroke-width="3" stroke-miterlimit="10" d="M465.7,518.8c-1.2,2.7-2.9,5.1-4.9,7.2
		c-2.1,2.1-4.5,3.7-7.2,4.9c-2.7,1.2-5.8,1.9-8.9,1.9h-51.3c-3.3,0-6.2-0.6-8.9-1.9c-2.7-1.3-5.1-2.9-7.2-4.9
		c-2.1-2.1-3.7-4.5-4.9-7.2c-1.2-2.7-1.9-5.8-1.9-8.9v-92.7c0-3.1,0.6-6.2,1.9-8.9c1.2-2.7,2.9-5.1,4.9-7.2c2.1-2.1,4.5-3.7,7.2-4.9
		c2.7-1.2,5.8-1.9,8.9-1.9h51.1c3.1,0,6.2,0.6,8.9,1.9c2.7,1.3,5.1,2.9,7.2,4.9c2.1,2.1,3.7,4.5,4.9,7.2c1.2,2.7,1.9,5.8,1.9,8.9
		v92.7C467.6,513,467,515.9,465.7,518.8z M435.2,421.6h-32.5c-1.4,0-2.1,0.6-2.1,2.1v79.5c0,1.4,0.6,2.1,2.1,2.1h32.5
		c1.4,0,2.1-0.6,2.1-2.1v-79.5C437.3,422.2,436.7,421.6,435.2,421.6z"/>
</g>
<g>
	<path fill="none" stroke="#000000" stroke-width="3" stroke-miterlimit="10" d="M539.3,435.6l22-41.4H593l-36.7,68.2l37.7,70.2
		h-31.7l-23.1-43.5l-23.1,43.5h-31.7l37.7-70.2l-36.7-68.2h31.7L539.3,435.6z"/>
</g>
<g>
	<path fill="none" stroke="#000000" stroke-width="3" stroke-linejoin="round" stroke-miterlimit="10" d="M174.5,395.2
		c0-9.7,0.2-21.8,0-31.3c0-4.1-0.6-8.4-1.4-12.4c-7.2-29-35-47-64.3-41.6c-26,4.7-45.3,27.8-45.3,54.2v28.6v2.5c-1,0-1.6,0-2.3,0
		H37.5c-5.8,0-10.3,4.5-10.3,10.3v117.2c0,5.8,4.5,10.3,10.3,10.3h163.8c5.8,0,10.3-4.5,10.3-10.3V405.5c0-5.8-4.5-10.3-10.3-10.3
		H174.5z M134.5,504.8H104c-4.7,0-8.7-3.9-8.7-8.9c0-0.2,0-0.2,0-0.4c0,0,0-2.1,0-4.1c0-2.3,1-8.9,4.3-13.6c3.3-4.9,8-8.2,13-9.7
		c-6.6-2.7-11.1-9.1-11.1-16.5c0-9.9,8-17.9,17.9-17.9s17.9,8,17.9,17.9c0,7.6-4.7,14.2-11.5,16.7c4.7,1.6,9.3,4.7,13,9.7
		c3.3,4.5,4.7,10.9,4.7,13.4v4.1c0,0.2,0,0.2,0,0.4C143.2,500.9,139.2,504.8,134.5,504.8 M154.3,377.1c-3.3,9.5-9.3,17.1-15.7,24.5
		c-4.9,5.8-10.7,10.5-16.9,14.8c-0.2,0.2-0.6,0.4-1.4,0.8c3.7-6.4,6.6-12.4,7.4-19.4c-8.7,2.1-16.9,1.2-24.9-2.3
		c-14.2-6.2-22.7-19.8-21.2-35.2c1.2-12.6,8-21.6,19.2-27.6c17.9-9.5,40.6-3.5,50.9,13.4C157.8,356.3,158,366.6,154.3,377.1"/>
</g>
<rect x="93.4" y="346.6" fill="none" width="52.6" height="47.3"/>
<text transform="matrix(1 0 0 1 108.6851 377.684)" display="none" enable-background="new    " font-family="'FiraSans-ExtraLight'" font-size="41.9972">$</text>
<g>
	<path fill="none" stroke="#000000" stroke-width="3" stroke-linejoin="round" stroke-miterlimit="10" d="M161.5,116
		c0-9.7,0.2-21.8,0-31.3c0-4.1-0.6-8.4-1.4-12.4c-7.2-29-35-47-64.3-41.6c-26,4.7-45.3,27.8-45.3,54.2v28.6v2.5c-1,0-1.6,0-2.3,0
		H24.5c-5.8,0-10.3,4.5-10.3,10.3v117.2c0,5.8,4.5,10.3,10.3,10.3h163.8c5.8,0,10.3-4.5,10.3-10.3V126.3c0-5.8-4.5-10.3-10.3-10.3
		H161.5z M121.5,225.6H91c-4.7,0-8.7-3.9-8.7-8.9c0-0.2,0-0.2,0-0.4c0,0,0-2.1,0-4.1c0-2.3,1-8.9,4.3-13.6c3.3-4.9,8-8.2,13-9.7
		c-6.6-2.7-11.1-9.1-11.1-16.5c0-9.9,8-17.9,17.9-17.9s17.9,8,17.9,17.9c0,7.6-4.7,14.2-11.5,16.7c4.7,1.6,9.3,4.7,13,9.7
		c3.3,4.5,4.7,10.9,4.7,13.4v4.1c0,0.2,0,0.2,0,0.4C130.2,221.7,126.2,225.6,121.5,225.6 M141.3,97.9c-3.3,9.5-9.3,17.1-15.7,24.5
		c-4.9,5.8-10.7,10.5-16.9,14.8c-0.2,0.2-0.6,0.4-1.4,0.8c3.7-6.4,6.6-12.4,7.4-19.4c-8.7,2.1-16.9,1.2-24.9-2.3
		c-14.2-6.2-22.7-19.8-21.2-35.2c1.2-12.6,8-21.6,19.2-27.6c17.9-9.5,40.6-3.5,50.9,13.4C144.8,77.1,145,87.4,141.3,97.9"/>
</g>
<rect x="80.4" y="67.4" fill="none" width="52.6" height="47.3"/>
<rect x="232.3" y="105.9" fill="none" width="361" height="188"/>
<text transform="matrix(1 0 0 1 232.272 252.9637)" font-family="'FiraSans-Eight'" font-size="200.9933">TOX</text>
</svg>
